<svg width="100" height="100" viewBox="0 0 100 100" fill="none" xmlns="http://www.w3.org/2000/svg">
<g id="ic_hospital">
<g id="Group">
<path id="Shape" fill-rule="evenodd" clip-rule="evenodd" d="M48.0867 17.4776V93.9993H6.00008V17.4776C6.00008 11.1382 11.1389 5.99935 17.4783 5.99935H36.6084C42.9478 5.99935 48.0867 11.1382 48.0867 17.4776V17.4776Z" stroke="#555555" stroke-width="4"/>
<path id="Rectangle-path" fill-rule="evenodd" clip-rule="evenodd" d="M48.0867 48.0851H88.0002C91.3139 48.0851 94.0002 50.7714 94.0002 54.0851V93.9981H48.0867V48.0851Z" stroke="#555555" stroke-width="4"/>
<path id="Shape_2" d="M32.7204 59.5634H36.5343" stroke="#555555" stroke-width="4" stroke-linecap="round" stroke-linejoin="round"/>
<path id="Shape_3" d="M32.7204 71.0416H36.5343" stroke="#555555" stroke-width="4" stroke-linecap="round" stroke-linejoin="round"/>
<path id="Shape_4" d="M32.7204 48.0851H36.5343" stroke="#555555" stroke-width="4" stroke-linecap="round" stroke-linejoin="round"/>
<path id="Shape_5" d="M32.7204 82.5199H36.5343" stroke="#555555" stroke-width="4" stroke-linecap="round" stroke-linejoin="round"/>
<path id="Shape_6" d="M17.4149 59.5634H21.2287" stroke="#555555" stroke-width="4" stroke-linecap="round" stroke-linejoin="round"/>
<path id="Shape_7" d="M17.4149 71.0416H21.2287" stroke="#555555" stroke-width="4" stroke-linecap="round" stroke-linejoin="round"/>
<path id="Shape_8" d="M17.4149 48.0851H21.2287" stroke="#555555" stroke-width="4" stroke-linecap="round" stroke-linejoin="round"/>
<path id="Shape_9" d="M17.4149 82.5199H21.2287" stroke="#555555" stroke-width="4" stroke-linecap="round" stroke-linejoin="round"/>
<path id="Rectangle-path_2" fill-rule="evenodd" clip-rule="evenodd" d="M63.3909 81.6944C63.3909 80.0375 64.7341 78.6944 66.3909 78.6944H75.6957C77.3525 78.6944 78.6957 80.0375 78.6957 81.6944V93.9987H63.3909V81.6944Z" stroke="#555555" stroke-width="4"/>
<path id="Shape_10" d="M21.3668 36.4816V21.3659" stroke="#555555" stroke-width="4" stroke-linecap="round"/>
<path id="Shape_11" d="M32.7204 36.4816V21.3659" stroke="#555555" stroke-width="4" stroke-linecap="round"/>
<path id="Shape_12" d="M21.3668 28.9236H32.7204" stroke="#555555" stroke-width="4"/>
</g>
<path id="Rectangle-path_3" fill-rule="evenodd" clip-rule="evenodd" d="M62.7844 59.3684C62.7844 58.2639 63.6798 57.3684 64.7844 57.3684H76.6956C77.8002 57.3684 78.6956 58.2639 78.6956 59.3684V67.2876C78.6956 68.3922 77.8002 69.2876 76.6956 69.2876H64.7844C63.6798 69.2876 62.7844 68.3922 62.7844 67.2876V59.3684Z" stroke="#555555" stroke-width="4"/>
</g>
</svg>
