<svg width="100" height="100" viewBox="0 0 100 100" fill="none" xmlns="http://www.w3.org/2000/svg">
<g id="ic_lung">
<g id="Group">
<path id="Shape" fill-rule="evenodd" clip-rule="evenodd" d="M40.2483 21.0123C40.2483 21.0123 36.9004 9.05518 27.9088 17.8556C17.9013 27.6502 5.78542 37.8431 8.39458 76.1106C10.6904 109.782 14.2933 94.1156 30.5871 86.5373C42.9267 80.7977 44.0746 71.041 44.5529 62.4318C45.0308 53.8227 44.5529 36.3173 40.2483 21.0123V21.0123Z" stroke="#555555" stroke-width="4"/>
<path id="Shape_2" fill-rule="evenodd" clip-rule="evenodd" d="M60.0867 21.0123C60.0867 21.0123 63.4346 9.05518 72.4262 17.8556C82.4337 27.6502 94.5496 37.8431 91.9404 76.1106C89.6446 109.782 86.0416 94.1156 69.7479 86.5373C57.4083 80.7977 56.2604 71.041 55.7821 62.4318C55.3037 53.8227 55.7821 36.3173 60.0867 21.0123V21.0123Z" stroke="#555555" stroke-width="4"/>
<path id="Shape_3" d="M50.0029 3.15039V35.6904" stroke="#555555" stroke-width="4" stroke-linecap="round"/>
<path id="Shape_4" d="M50.003 35.6903C50.003 35.6903 50.0655 38.4732 48.9663 39.0961C47.4638 39.9473 26.4138 51.944 26.4138 51.944" stroke="#555555" stroke-width="4" stroke-linecap="round"/>
<path id="Shape_5" d="M38.2397 45.2255L26.4138 37.1368" stroke="#555555" stroke-width="4" stroke-linecap="round"/>
<path id="Shape_6" d="M38.2397 45.226L35.8809 57.7497" stroke="#555555" stroke-width="4" stroke-linecap="round"/>
<path id="Shape_7" d="M50.0029 35.6903C50.0029 35.6903 50.1642 38.4415 51.1946 39.0961C52.6521 40.0223 73.7475 51.944 73.7475 51.944" stroke="#555555" stroke-width="4" stroke-linecap="round"/>
<path id="Shape_8" d="M61.9216 45.2255L73.7474 37.1368" stroke="#555555" stroke-width="4" stroke-linecap="round"/>
<path id="Shape_9" d="M61.9216 45.226L64.2803 57.7497" stroke="#555555" stroke-width="4" stroke-linecap="round"/>
</g>
</g>
</svg>
