<svg width="100" height="100" viewBox="0 0 100 100" fill="none" xmlns="http://www.w3.org/2000/svg">
<g id="ic_medication">
<g id="Group">
<path id="Rectangle-path" fill-rule="evenodd" clip-rule="evenodd" d="M18.8337 11.8338C18.8337 9.62466 20.6246 7.8338 22.8337 7.8338H40.5C42.7092 7.8338 44.5 9.62466 44.5 11.8338V14.8338C44.5 17.0429 42.7091 18.8338 40.5 18.8338H22.8337C20.6246 18.8338 18.8337 17.0429 18.8337 14.8338V11.8338Z" stroke="#555555" stroke-width="4"/>
<path id="Shape" fill-rule="evenodd" clip-rule="evenodd" d="M40.8333 29.4803V18.8338H22.4999V29.4807C22.4999 29.4807 7.83325 35.2264 7.83325 42.816V84.0902C7.83325 88.5071 11.8618 92.1675 16.2787 92.1675H47.0545C51.4714 92.1675 55.4999 88.5071 55.4999 84.0902V42.8156C55.4999 35.6022 40.8333 29.4803 40.8333 29.4803Z" stroke="#555555" stroke-width="4"/>
<path id="Rectangle-path_2" fill-rule="evenodd" clip-rule="evenodd" d="M7.83325 48.1671H55.4999V77.5005H7.83325V48.1671Z" stroke="#555555" stroke-width="4"/>
<path id="Shape_2" d="M31.6666 55.3304V70.5859" stroke="#555555" stroke-width="4" stroke-linecap="round" stroke-linejoin="round"/>
<path id="Shape_3" d="M24.0387 62.9591H39.2943" stroke="#555555" stroke-width="4" stroke-linecap="round" stroke-linejoin="round"/>
<path id="Shape_4" fill-rule="evenodd" clip-rule="evenodd" d="M92.1666 73.9379C92.1666 79.9557 87.2885 84.8338 81.2707 84.8338H81.0625C75.0447 84.8338 70.1666 79.9557 70.1666 73.9379V55.3963C70.1666 49.3786 75.0447 44.5005 81.0625 44.5005H81.2707C87.2885 44.5005 92.1666 49.3786 92.1666 55.3963V73.9379V73.9379Z" stroke="#555555" stroke-width="4"/>
<path id="Shape_5" d="M70.1666 64.6671H92.1666" stroke="#555555" stroke-width="4"/>
</g>
</g>
</svg>
