<svg width="100" height="100" viewBox="0 0 100 100" fill="none" xmlns="http://www.w3.org/2000/svg">
<g id="ic_tempeture">
<g id="Group">
<path id="Shape" fill-rule="evenodd" clip-rule="evenodd" d="M70.8887 21.6214L35.3515 57.1582C34.0909 58.4188 33.124 59.9424 32.5205 61.6201L28.7876 71.9937C27.9612 74.291 26.6372 76.3771 24.9109 78.1034L17.4464 85.5679C15.5177 87.4966 15.5177 90.6237 17.4464 92.5525V92.5525C19.3751 94.4812 22.5023 94.4812 24.431 92.5525L31.8955 85.088C33.6218 83.3617 35.7079 82.038 38.0052 81.2113L48.3788 77.4783C50.0564 76.8746 51.5801 75.908 52.8407 74.6473L88.3782 39.1109C93.2076 34.2811 93.2076 26.4508 88.3782 21.6214V21.6214C83.5484 16.7916 75.7181 16.7916 70.8887 21.6214V21.6214Z" stroke="#555555" stroke-width="4"/>
<path id="Shape_2" d="M22.8099 80.2041L29.7948 87.189" stroke="#555555" stroke-width="4"/>
<path id="Shape_3" d="M81.2783 32.5596L44.8541 68.9837" stroke="#555555" stroke-width="4" stroke-linecap="round" stroke-linejoin="round"/>
<path id="Shape_4" d="M65.9073 26.6025L69.8186 30.5138" stroke="#555555" stroke-width="4" stroke-linecap="round" stroke-linejoin="round"/>
<path id="Shape_5" d="M59.1549 33.3545L63.0662 37.2654" stroke="#555555" stroke-width="4" stroke-linecap="round" stroke-linejoin="round"/>
<path id="Shape_6" d="M52.4029 40.1064L56.3142 44.0177" stroke="#555555" stroke-width="4" stroke-linecap="round" stroke-linejoin="round"/>
<path id="Shape_7" d="M45.6502 46.8604L49.5615 50.7716" stroke="#555555" stroke-width="4" stroke-linecap="round" stroke-linejoin="round"/>
<path id="Shape_8" d="M38.8981 53.6123L42.8093 57.5232" stroke="#555555" stroke-width="4" stroke-linecap="round" stroke-linejoin="round"/>
<path id="Shape_9" d="M16.0923 28.1393H39.7826" stroke="#555555" stroke-width="4.8" stroke-linecap="round"/>
<path id="Shape_10" d="M27.9374 39.9842V16.2939" stroke="#555555" stroke-width="4.8" stroke-linecap="round" stroke-linejoin="round"/>
</g>
</g>
</svg>
