<svg width="96" height="96" viewBox="0 0 96 96" fill="none" xmlns="http://www.w3.org/2000/svg">
<g id="ic_vacine">
<g id="Group">
<path id="Shape" fill-rule="evenodd" clip-rule="evenodd" d="M73.7436 38.61L65.6056 30.472L57.4676 22.334L14.3268 65.4748L30.6028 81.7508L73.7436 38.61Z" stroke="#555555" stroke-width="4"/>
<path id="Shape_2" d="M87.4496 8.628L65.6056 30.472" stroke="#555555" stroke-width="4" stroke-linecap="round" stroke-linejoin="round"/>
<path id="Shape_3" d="M48.2632 31.5388L52.332 35.6076" stroke="#555555" stroke-width="4" stroke-linecap="round"/>
<path id="Shape_4" d="M42.6916 37.11L50.8296 45.248" stroke="#555555" stroke-width="4" stroke-linecap="round"/>
<path id="Shape_5" d="M37.12 42.6816L41.1892 46.7504" stroke="#555555" stroke-width="4" stroke-linecap="round"/>
<path id="Shape_6" d="M31.5488 48.2532L39.6868 56.3908" stroke="#555555" stroke-width="4" stroke-linecap="round"/>
<path id="Shape_7" d="M25.9772 53.8244L30.046 57.8936" stroke="#555555" stroke-width="4" stroke-linecap="round"/>
<path id="Shape_8" d="M20.4056 59.396L28.5436 67.534" stroke="#555555" stroke-width="4" stroke-linecap="round"/>
<path id="Shape_9" d="M2.3712 77.4304L18.6472 93.7064" stroke="#555555" stroke-width="4" stroke-linecap="round"/>
<path id="Rectangle-path" fill-rule="evenodd" clip-rule="evenodd" d="M18.5187 69.6661L26.4114 77.5587L14.456 89.5141L6.56334 81.6215L18.5187 69.6661Z" stroke="#555555" stroke-width="3.99996"/>
<path id="Shape_10" fill-rule="evenodd" clip-rule="evenodd" d="M87.4492 28.0584C87.3528 28.0584 81.4668 37.4924 81.4668 40.796C81.4668 44.1004 84.1452 46.7788 87.4492 46.7788C90.7532 46.7788 93.432 44.1004 93.432 40.796C93.432 37.4924 87.546 28.0584 87.4492 28.0584V28.0584Z" stroke="#555555" stroke-width="4"/>
</g>
</g>
</svg>
