<svg width="100" height="100" viewBox="0 0 100 100" fill="none" xmlns="http://www.w3.org/2000/svg">
<path d="M7.41935 31.5484H18.7742C19.5591 31.5484 20.1935 30.9139 20.1935 30.129V25.871H44.3226C45.1061 25.871 45.7419 26.5068 45.7419 27.2903V35.8065C45.7419 36.5914 46.3764 37.2258 47.1613 37.2258H58.5161C59.301 37.2258 59.9355 36.5914 59.9355 35.8065V27.2903C59.9355 18.6819 52.931 11.6774 44.3226 11.6774H20.1935V7.41935C20.1935 6.63445 19.5591 6 18.7742 6H7.41935C6.63445 6 6 6.63445 6 7.41935V30.129C6 30.9139 6.63445 31.5484 7.41935 31.5484ZM48.5806 34.3871V31.5484H57.0968V34.3871H48.5806ZM57.0968 27.2903V28.7097H48.5806V27.2903C48.5806 24.9427 46.6702 23.0323 44.3226 23.0323H25.871V14.5161H44.3226C51.3668 14.5161 57.0968 20.2461 57.0968 27.2903ZM23.0323 14.5161V23.0323H20.1935V14.5161H23.0323ZM8.83871 8.83871H17.3548V28.7097H8.83871V8.83871Z" fill="#555555" stroke="#555555" stroke-width="0.9"/>
<path d="M65.6129 82.6454H48.3464C48.4855 82.1898 48.5806 81.7172 48.5806 81.2261C48.5806 79.9316 48.0768 78.7138 47.1613 77.7998L31.1325 61.771C30.8671 61.5041 30.5066 61.3551 30.129 61.3551H20.1935V59.9358C20.1935 59.1509 19.5591 58.5164 18.7742 58.5164H7.41935C6.63445 58.5164 6 59.1509 6 59.9358V82.6454C6 83.4303 6.63445 84.0648 7.41935 84.0648H18.7742C19.5591 84.0648 20.1935 83.4303 20.1935 82.6454V81.2261H21.1062L36.3288 93.6795C36.5814 93.8867 36.8994 94.0003 37.2258 94.0003H65.6129C68.744 94.0003 71.2903 91.454 71.2903 88.3229C71.2903 85.1918 68.744 82.6454 65.6129 82.6454ZM17.3548 81.2261H8.83871V61.3551H17.3548V81.2261ZM65.6129 91.1616H37.7325L22.5099 78.7082C22.2573 78.5009 21.9394 78.3874 21.6129 78.3874H20.1935V64.1938H29.5414L45.1543 79.8067C45.5333 80.1871 45.7419 80.6896 45.7419 81.2261C45.7419 81.7626 45.5333 82.2651 45.1543 82.6454L44.3226 83.4772C43.5632 84.2337 42.2432 84.2337 41.4839 83.4772L33.9712 75.9645L31.9643 77.9715L39.4769 85.4842C40.3924 86.3996 41.6088 86.9035 42.9032 86.9035C44.1977 86.9035 45.4155 86.3996 46.3295 85.4842H65.6129C67.1784 85.4842 68.4516 86.7573 68.4516 88.3229C68.4516 89.8884 67.1784 91.1616 65.6129 91.1616Z" fill="#555555" stroke="#555555" stroke-width="0.9"/>
<path d="M45.742 41.4833C45.742 40.6994 46.3775 40.0639 47.1614 40.0639V40.0639C47.9452 40.0639 48.5807 40.6994 48.5807 41.4833V65.6123C48.5807 66.3962 47.9452 67.0316 47.1614 67.0316V67.0316C46.3775 67.0316 45.742 66.3962 45.742 65.6123V41.4833Z" fill="#555555" stroke="#555555" stroke-width="0.9"/>
<path d="M51.4193 44.3226C51.4193 43.5388 52.0547 42.9033 52.8386 42.9033V42.9033C53.6225 42.9033 54.258 43.5387 54.258 44.3226V74.1291C54.258 74.913 53.6225 75.5484 52.8386 75.5484V75.5484C52.0547 75.5484 51.4193 74.913 51.4193 74.1291V44.3226Z" fill="#555555" stroke="#555555" stroke-width="0.9"/>
<path d="M57.0967 41.4833C57.0967 40.6994 57.7322 40.0639 58.5161 40.0639V40.0639C59.3 40.0639 59.9354 40.6994 59.9354 41.4833V65.6123C59.9354 66.3962 59.3 67.0316 58.5161 67.0316V67.0316C57.7322 67.0316 57.0967 66.3962 57.0967 65.6123V41.4833Z" fill="#555555" stroke="#555555" stroke-width="0.9"/>
<path d="M82.6453 47.1606C79.5142 47.1606 76.9678 49.7069 76.9678 52.838C76.9678 55.9691 79.5142 58.5155 82.6453 58.5155C85.7764 58.5155 88.3227 55.9691 88.3227 52.838C88.3227 49.7069 85.7764 47.1606 82.6453 47.1606ZM82.6453 55.6768C81.0797 55.6768 79.8065 54.4036 79.8065 52.838C79.8065 51.2725 81.0797 49.9993 82.6453 49.9993C84.2108 49.9993 85.484 51.2725 85.484 52.838C85.484 54.4036 84.2108 55.6768 82.6453 55.6768Z" fill="#555555" stroke="#555555" stroke-width="0.9"/>
<path d="M72.7097 40.064C76.6229 40.064 79.8065 36.8804 79.8065 32.9672C79.8065 29.0541 76.6229 25.8705 72.7097 25.8705C68.7965 25.8705 65.6129 29.0541 65.6129 32.9672C65.6129 36.8804 68.7965 40.064 72.7097 40.064ZM72.7097 28.7092C75.0573 28.7092 76.9678 30.6196 76.9678 32.9672C76.9678 35.3149 75.0573 37.2253 72.7097 37.2253C70.3621 37.2253 68.4516 35.3149 68.4516 32.9672C68.4516 30.6196 70.3621 28.7092 72.7097 28.7092Z" fill="#555555" stroke="#555555" stroke-width="0.9"/>
<path d="M86.9031 6C82.99 6 79.8064 9.18361 79.8064 13.0968C79.8064 17.0099 82.99 20.1935 86.9031 20.1935C90.8163 20.1935 93.9999 17.0099 93.9999 13.0968C93.9999 9.18361 90.8163 6 86.9031 6ZM86.9031 17.3548C84.5555 17.3548 82.6451 15.4444 82.6451 13.0968C82.6451 10.7492 84.5555 8.83871 86.9031 8.83871C89.2507 8.83871 91.1612 10.7492 91.1612 13.0968C91.1612 15.4444 89.2507 17.3548 86.9031 17.3548Z" fill="#555555" stroke="#555555" stroke-width="0.9"/>
<path d="M78.3871 64.1942C77.7313 64.1942 77.0827 64.2722 76.4454 64.4241C75.3965 61.7784 72.8076 59.9361 69.871 59.9361C66.4405 59.9361 63.5707 62.3827 62.9149 65.6227C62.7594 66.391 63.4097 67.0329 64.1935 67.0329V67.0329C64.9774 67.0329 65.5899 66.3799 65.8471 65.6394C66.4256 63.9739 68.0111 62.7748 69.871 62.7748C71.9716 62.7748 73.7742 64.3545 74.0637 66.4495C74.1248 66.8924 74.3902 67.2827 74.7833 67.4984C75.1765 67.7113 75.6449 67.7326 76.0551 67.5481C76.8102 67.206 77.5937 67.0329 78.3871 67.0329C81.5182 67.0329 84.0645 69.5792 84.0645 72.7103C84.0645 74.202 83.4854 75.6129 82.4337 76.6845C81.8915 77.2366 81.8915 78.1209 82.4337 78.6716C83.4854 79.7432 84.0645 81.154 84.0645 82.6458C84.0645 85.2921 82.2456 87.5208 79.792 88.1474C79.0325 88.3414 78.3871 88.9587 78.3871 89.7425V89.7425C78.3871 90.5264 79.0273 91.1743 79.8004 91.0447C83.8266 90.3697 86.9032 86.861 86.9032 82.6458C86.9032 80.8418 86.3412 79.1201 85.2993 77.678C86.3412 76.236 86.9032 74.5143 86.9032 72.7103C86.9032 68.0136 83.0837 64.1942 78.3871 64.1942Z" fill="#555555" stroke="#555555" stroke-width="0.9" stroke-linecap="round" stroke-linejoin="round"/>
</svg>
